<svg width="1299" height="739" viewBox="0 0 1299 739" fill="none" xmlns="http://www.w3.org/2000/svg">
<path d="M350.62 635.954L315.259 656.37C314.976 656.533 314.69 656.603 314.389 656.605C314.085 656.605 313.776 656.523 313.511 656.374C313.245 656.222 313.028 656.016 312.86 655.728L269.81 581.163C268.846 579.493 266.712 578.922 265.043 579.885C263.373 580.849 262.801 582.983 263.765 584.652L306.816 659.217C307.618 660.61 308.769 661.714 310.083 662.454C311.398 663.194 312.879 663.583 314.389 663.584C315.868 663.585 317.384 663.204 318.749 662.415L354.11 641.999C355.778 641.035 356.351 638.901 355.387 637.232C354.423 635.563 352.289 634.991 350.62 635.954Z" fill="#77D2DD"/>
<path d="M200.311 455.054L203.334 453.309L118.814 306.916L319.912 190.812L402.687 334.182L198.566 452.032L200.311 455.054L203.334 453.309L200.311 455.054L202.056 458.075L409.199 338.481C409.995 338.022 410.587 337.25 410.825 336.362C411.063 335.475 410.936 334.51 410.476 333.715L324.212 184.301C323.248 182.631 321.114 182.059 319.445 183.023L112.302 302.616C110.633 303.58 110.061 305.714 111.024 307.384L197.29 456.799C197.749 457.594 198.521 458.186 199.408 458.424C200.296 458.663 201.261 458.535 202.056 458.075L200.311 455.054Z" fill="#EF343F"/>
<path d="M206.073 433.553L209.096 431.808L140.316 312.678L314.151 212.314L381.187 328.421L204.328 430.53L206.073 433.553L209.096 431.808L206.073 433.553L207.818 436.575L387.698 332.721C388.495 332.262 389.087 331.49 389.325 330.602C389.563 329.714 389.436 328.75 388.976 327.953L318.451 205.801C317.488 204.132 315.353 203.56 313.684 204.524L133.805 308.378C132.135 309.342 131.563 311.476 132.527 313.145L203.051 435.298C203.511 436.093 204.283 436.686 205.17 436.923C206.058 437.161 207.023 437.034 207.818 436.575L206.073 433.553Z" fill="white"/>
<path d="M294.032 692.232L272.322 704.766C269.005 706.679 265.411 707.582 261.848 707.583C258.22 707.583 254.635 706.64 251.478 704.857C248.32 703.071 245.594 700.458 243.643 697.081L21.3455 312.05C19.4322 308.734 18.5301 305.139 18.5284 301.576C18.5284 297.949 19.472 294.363 21.2549 291.206C23.0405 288.048 25.6527 285.323 29.03 283.371L48.7198 272.003C50.3893 271.04 50.9605 268.905 49.9975 267.236C49.0337 265.567 46.8996 264.996 45.23 265.959L25.5402 277.327C21.0628 279.911 17.5519 283.567 15.1783 287.774C12.8021 291.982 11.5497 296.742 11.5488 301.576C11.548 306.322 12.7623 311.146 15.301 315.54L237.599 700.571C240.182 705.049 243.839 708.559 248.045 710.933C252.253 713.31 257.013 714.562 261.848 714.562C266.593 714.564 271.417 713.349 275.812 710.811L297.522 698.277C299.191 697.313 299.763 695.179 298.799 693.51C297.835 691.84 295.701 691.268 294.032 692.232Z" fill="#3F56AF"/>
<path d="M33.4662 307.211L255.763 692.24C256.727 693.91 258.861 694.482 260.531 693.518C262.2 692.554 262.772 690.42 261.808 688.752L39.5108 303.721C38.5469 302.051 36.4128 301.479 34.744 302.443C33.0744 303.407 32.5024 305.541 33.4662 307.211Z" fill="#3F56AF"/>
<path d="M373.705 589.871L391.43 620.573C392.394 622.242 394.528 622.814 396.197 621.851C397.867 620.887 398.438 618.753 397.475 617.083L379.749 586.381C378.785 584.712 376.651 584.141 374.981 585.104C373.313 586.067 372.741 588.202 373.705 589.871Z" fill="#3F56AF"/>
<path d="M385.841 582.864L403.567 613.565C404.53 615.234 406.664 615.806 408.334 614.842C410.002 613.879 410.574 611.744 409.611 610.075L391.886 579.374C390.922 577.704 388.788 577.132 387.118 578.096C385.449 579.06 384.877 581.194 385.841 582.864Z" fill="#3F56AF"/>
<path d="M397.98 575.855L415.706 606.558C416.669 608.226 418.804 608.798 420.472 607.835C422.142 606.871 422.713 604.737 421.75 603.068L404.024 572.365C403.061 570.697 400.926 570.125 399.257 571.088C397.588 572.052 397.016 574.186 397.98 575.855Z" fill="#3F56AF"/>
<path d="M410.117 568.848L427.842 599.549C428.805 601.219 430.94 601.791 432.609 600.827C434.278 599.863 434.85 597.729 433.886 596.06L416.161 565.358C415.197 563.689 413.063 563.117 411.394 564.081C409.725 565.044 409.153 567.179 410.117 568.848Z" fill="#3F56AF"/>
<path d="M422.255 561.84L439.981 592.542C440.945 594.211 443.079 594.783 444.748 593.82C446.417 592.856 446.989 590.722 446.026 589.052L428.3 558.35C427.336 556.681 425.202 556.11 423.532 557.073C421.864 558.036 421.291 560.171 422.255 561.84Z" fill="#3F56AF"/>
<path d="M434.394 554.833L452.12 585.534C453.083 587.203 455.217 587.775 456.886 586.811C458.555 585.848 459.127 583.713 458.163 582.044L440.439 551.343C439.475 549.673 437.341 549.101 435.671 550.065C434.002 551.029 433.43 553.163 434.394 554.833Z" fill="#3F56AF"/>
<path d="M446.531 547.824L464.256 578.527C465.22 580.195 467.354 580.767 469.023 579.804C470.693 578.84 471.264 576.706 470.301 575.037L452.575 544.334C451.611 542.666 449.477 542.094 447.808 543.058C446.139 544.021 445.567 546.155 446.531 547.824Z" fill="#3F56AF"/>
<path d="M158.476 231.419L166.568 245.434C167.531 247.104 169.666 247.675 171.335 246.712C173.005 245.748 173.576 243.614 172.613 241.945L164.521 227.929C163.557 226.26 161.423 225.688 159.754 226.652C158.084 227.616 157.512 229.75 158.476 231.419Z" fill="#3F56AF"/>
<path d="M170.615 224.411L178.706 238.427C179.67 240.096 181.804 240.668 183.473 239.704C185.143 238.741 185.715 236.606 184.751 234.937L176.659 220.921C175.695 219.252 173.561 218.68 171.892 219.644C170.223 220.608 169.651 222.742 170.615 224.411Z" fill="#3F56AF"/>
<path d="M182.753 217.403L190.846 231.419C191.809 233.088 193.944 233.66 195.612 232.696C197.282 231.733 197.853 229.598 196.89 227.93L188.798 213.914C187.834 212.245 185.7 211.673 184.031 212.637C182.362 213.601 181.789 215.735 182.753 217.403Z" fill="#3F56AF"/>
<path d="M194.89 210.396L202.982 224.411C203.945 226.081 206.08 226.653 207.748 225.689C209.418 224.725 209.99 222.591 209.026 220.921L200.935 206.906C199.971 205.237 197.837 204.665 196.167 205.628C194.498 206.592 193.926 208.726 194.89 210.396Z" fill="#3F56AF"/>
<path d="M207.027 203.389L215.119 217.404C216.082 219.073 218.217 219.644 219.886 218.681C221.555 217.718 222.127 215.583 221.164 213.914L213.071 199.899C212.107 198.229 209.973 197.657 208.305 198.621C206.635 199.585 206.063 201.719 207.027 203.389Z" fill="#3F56AF"/>
<path d="M219.167 196.38L227.259 210.396C228.223 212.065 230.357 212.637 232.027 211.673C233.695 210.71 234.267 208.575 233.303 206.906L225.212 192.89C224.248 191.222 222.114 190.649 220.444 191.613C218.776 192.577 218.204 194.711 219.167 196.38Z" fill="#3F56AF"/>
<path d="M231.302 189.373L239.395 203.389C240.358 205.057 242.493 205.629 244.161 204.666C245.831 203.702 246.402 201.568 245.439 199.899L237.347 185.883C236.383 184.214 234.249 183.642 232.58 184.606C230.91 185.57 230.338 187.704 231.302 189.373Z" fill="#3F56AF"/>
<path d="M391.99 412.06L388.985 413.835C390.531 416.454 392.704 418.511 395.19 419.897C397.677 421.285 400.479 422.014 403.327 422.015C406.204 422.015 409.134 421.262 411.781 419.697C414.4 418.151 416.457 415.978 417.843 413.492C419.23 411.004 419.959 408.203 419.96 405.356C419.962 402.479 419.208 399.548 417.643 396.901C416.097 394.282 413.924 392.225 411.438 390.839C408.951 389.451 406.149 388.723 403.302 388.723C400.425 388.721 397.493 389.474 394.846 391.04C392.228 392.586 390.17 394.759 388.784 397.245C387.397 399.732 386.669 402.534 386.668 405.381C386.666 408.258 387.419 411.189 388.985 413.836L391.99 412.06L394.994 410.284C394.077 408.731 393.649 407.054 393.648 405.381C393.647 403.729 394.073 402.09 394.879 400.647C395.687 399.202 396.861 397.957 398.397 397.049C399.951 396.131 401.629 395.703 403.302 395.702C404.954 395.702 406.593 396.128 408.036 396.934C409.479 397.741 410.726 398.916 411.634 400.451C412.551 402.005 412.979 403.683 412.98 405.356C412.981 407.009 412.555 408.648 411.749 410.091C410.941 411.534 409.766 412.78 408.23 413.689C406.677 414.605 404.999 415.033 403.327 415.035C401.674 415.035 400.035 414.609 398.592 413.803C397.148 412.996 395.903 411.82 394.994 410.284L391.99 412.06Z" fill="#EBEC06"/>
<path d="M421.111 461.343L418.106 463.118C419.652 465.736 421.825 467.793 424.311 469.179C426.798 470.567 429.6 471.296 432.448 471.296C435.324 471.297 438.255 470.544 440.902 468.98C443.521 467.434 445.578 465.261 446.964 462.774C448.351 460.287 449.08 457.485 449.081 454.638C449.083 451.761 448.329 448.83 446.764 446.183C445.218 443.564 443.045 441.507 440.559 440.121C438.072 438.733 435.27 438.005 432.423 438.005C429.546 438.003 426.614 438.756 423.967 440.322C421.349 441.868 419.292 444.041 417.905 446.527C416.518 449.014 415.79 451.816 415.789 454.663C415.787 457.54 416.54 460.471 418.106 463.118L421.111 461.343L424.115 459.567C423.198 458.013 422.77 456.335 422.769 454.663C422.768 453.01 423.194 451.372 424 449.929C424.808 448.485 425.983 447.239 427.518 446.331C429.072 445.413 430.75 444.985 432.423 444.984C434.075 444.984 435.714 445.41 437.157 446.216C438.601 447.024 439.847 448.198 440.755 449.733C441.672 451.287 442.1 452.965 442.101 454.638C442.102 456.291 441.676 457.93 440.869 459.373C440.062 460.816 438.887 462.062 437.352 462.971C435.798 463.887 434.12 464.315 432.448 464.317C430.795 464.317 429.156 463.891 427.713 463.085C426.269 462.278 425.024 461.102 424.115 459.567L421.111 461.343Z" fill="#EF343F"/>
<path d="M399.928 455.896L401.704 458.9C404.323 457.354 406.379 455.18 407.765 452.694C409.153 450.207 409.882 447.405 409.882 444.558C409.883 441.681 409.13 438.75 407.565 436.103C406.019 433.484 403.846 431.428 401.359 430.042C398.872 428.654 396.071 427.926 393.223 427.925C390.347 427.924 387.415 428.676 384.769 430.242C382.149 431.788 380.093 433.961 378.707 436.447C377.319 438.934 376.591 441.736 376.59 444.583C376.589 447.46 377.341 450.392 378.908 453.039C380.454 455.657 382.627 457.714 385.113 459.1C387.6 460.487 390.402 461.217 393.249 461.217C396.126 461.218 399.057 460.465 401.704 458.9L399.928 455.896L398.153 452.891C396.599 453.808 394.921 454.235 393.249 454.237C391.597 454.238 389.958 453.811 388.515 453.006C387.07 452.198 385.825 451.023 384.916 449.487C383.999 447.933 383.571 446.255 383.569 444.583C383.569 442.931 383.996 441.292 384.802 439.849C385.609 438.405 386.784 437.159 388.319 436.251C389.873 435.334 391.551 434.906 393.223 434.904C394.876 434.904 396.515 435.331 397.958 436.136C399.402 436.944 400.648 438.119 401.557 439.654C402.473 441.208 402.901 442.886 402.903 444.558C402.903 446.211 402.476 447.85 401.671 449.292C400.864 450.737 399.688 451.983 398.153 452.891L399.928 455.896Z" fill="#3F56AF"/>
<path d="M449.209 426.773L450.984 429.777C453.602 428.231 455.66 426.058 457.046 423.572C458.434 421.085 459.162 418.283 459.163 415.435C459.164 412.558 458.411 409.628 456.846 406.981C455.299 404.362 453.126 402.305 450.641 400.919C448.153 399.532 445.351 398.803 442.504 398.802C439.627 398.8 436.696 399.554 434.049 401.119C431.431 402.666 429.374 404.839 427.987 407.324C426.6 409.812 425.871 412.614 425.871 415.461C425.869 418.338 426.623 421.269 428.188 423.916C429.734 426.534 431.907 428.591 434.393 429.978C436.88 431.365 439.682 432.094 442.53 432.094C445.406 432.096 448.337 431.343 450.984 429.778L449.209 426.773L447.434 423.769C445.88 424.685 444.202 425.114 442.53 425.114C440.877 425.115 439.238 424.689 437.795 423.883C436.351 423.075 435.105 421.9 434.196 420.365C433.28 418.811 432.852 417.133 432.85 415.461C432.85 413.808 433.276 412.169 434.082 410.726C434.889 409.282 436.065 408.037 437.6 407.128C439.153 406.212 440.831 405.783 442.504 405.782C444.157 405.782 445.796 406.207 447.239 407.014C448.683 407.821 449.928 408.996 450.837 410.532C451.753 412.085 452.182 413.763 452.183 415.435C452.183 417.088 451.757 418.727 450.951 420.17C450.144 421.614 448.969 422.86 447.433 423.769L449.209 426.773Z" fill="#5FC336"/>
<path d="M386.246 548.624L384.501 545.602L356.387 561.833C355.974 562.07 355.55 562.175 355.117 562.177C354.677 562.177 354.234 562.061 353.851 561.843C353.468 561.625 353.145 561.319 352.902 560.9C352.665 560.488 352.561 560.064 352.56 559.631C352.559 559.191 352.676 558.748 352.892 558.365C353.111 557.981 353.418 557.658 353.837 557.415L381.951 541.183C382.363 540.947 382.787 540.842 383.22 540.841C383.66 540.84 384.102 540.957 384.486 541.174C384.87 541.392 385.192 541.698 385.435 542.117C385.671 542.529 385.776 542.953 385.778 543.387C385.778 543.828 385.662 544.27 385.445 544.653C385.226 545.037 384.92 545.359 384.502 545.602L386.246 548.624L387.991 551.647C389.511 550.771 390.715 549.518 391.522 548.085C392.331 546.651 392.757 545.035 392.758 543.387C392.758 541.771 392.341 540.118 391.48 538.628C390.604 537.109 389.351 535.904 387.918 535.096C386.484 534.287 384.867 533.862 383.22 533.862C381.604 533.86 379.951 534.277 378.461 535.139L350.347 551.371C348.827 552.247 347.623 553.499 346.816 554.932C346.006 556.366 345.58 557.982 345.58 559.631C345.578 561.246 345.996 562.9 346.858 564.39C347.734 565.91 348.986 567.114 350.419 567.921C351.853 568.73 353.469 569.156 355.117 569.156C356.733 569.157 358.387 568.74 359.877 567.878L387.991 551.647L386.246 548.624Z" fill="#F57734"/>
<path d="M439.081 518.119L437.335 515.098L409.221 531.33C408.809 531.567 408.385 531.671 407.952 531.672C407.512 531.673 407.069 531.556 406.686 531.34C406.302 531.121 405.979 530.814 405.736 530.395C405.499 529.984 405.395 529.56 405.394 529.126C405.393 528.686 405.51 528.243 405.726 527.86C405.945 527.477 406.251 527.154 406.67 526.912L434.784 510.679C435.197 510.442 435.621 510.338 436.054 510.337C436.494 510.336 436.936 510.453 437.32 510.669C437.704 510.888 438.026 511.195 438.269 511.614C438.505 512.025 438.61 512.449 438.612 512.883C438.612 513.323 438.496 513.766 438.278 514.148C438.06 514.532 437.754 514.855 437.336 515.098L439.081 518.119L440.825 521.142C442.345 520.266 443.549 519.014 444.356 517.581C445.165 516.147 445.591 514.531 445.591 512.883C445.592 511.267 445.175 509.614 444.314 508.123C443.437 506.604 442.185 505.4 440.752 504.592C439.318 503.783 437.701 503.357 436.054 503.357C434.438 503.355 432.785 503.773 431.296 504.635L403.18 520.867C401.661 521.743 400.457 522.995 399.649 524.428C398.84 525.862 398.414 527.479 398.414 529.126C398.412 530.742 398.83 532.395 399.692 533.886C400.568 535.405 401.821 536.609 403.254 537.416C404.687 538.226 406.304 538.651 407.952 538.652C409.567 538.654 411.22 538.236 412.71 537.375L440.826 521.142L439.081 518.119Z" fill="#F57734"/>
<path d="M255.668 518.557L252.646 520.302C254.265 523.109 256.563 525.316 259.203 526.805C261.844 528.296 264.829 529.081 267.864 529.082C270.841 529.083 273.875 528.319 276.63 526.728L283.214 522.926C286.02 521.307 288.228 519.009 289.717 516.369C291.209 513.728 291.993 510.743 291.994 507.709C291.996 504.731 291.231 501.698 289.639 498.943C288.02 496.137 285.722 493.929 283.082 492.439C280.441 490.947 277.456 490.162 274.422 490.162C271.444 490.161 268.41 490.925 265.656 492.517L259.072 496.318C256.265 497.937 254.058 500.236 252.568 502.876C251.076 505.517 250.292 508.501 250.291 511.537C250.289 514.514 251.054 517.547 252.645 520.302L255.668 518.557L258.69 516.812C257.723 515.136 257.272 513.332 257.271 511.537C257.27 509.709 257.746 507.899 258.645 506.309C259.545 504.717 260.855 503.349 262.562 502.362L269.146 498.561C270.823 497.595 272.626 497.143 274.422 497.142C276.249 497.141 278.06 497.617 279.65 498.516C281.241 499.416 282.609 500.726 283.596 502.433C284.562 504.11 285.013 505.913 285.015 507.709C285.016 509.535 284.539 511.346 283.64 512.936C282.74 514.527 281.43 515.896 279.724 516.882L273.14 520.683C271.463 521.65 269.659 522.101 267.864 522.103C266.037 522.103 264.226 521.627 262.636 520.728C261.045 519.828 259.676 518.518 258.69 516.812L255.668 518.557Z" fill="#B635A1"/>
<path d="M315.594 483.958L312.572 485.703C314.191 488.51 316.49 490.717 319.13 492.207C321.771 493.699 324.756 494.484 327.79 494.484C330.768 494.486 333.801 493.721 336.555 492.13L343.14 488.328C345.946 486.709 348.154 484.411 349.644 481.77C351.135 479.129 351.92 476.145 351.92 473.11C351.922 470.132 351.157 467.099 349.566 464.345C347.947 461.538 345.648 459.33 343.008 457.841C340.367 456.349 337.382 455.564 334.348 455.564C331.37 455.562 328.336 456.327 325.582 457.919L318.998 461.72C316.191 463.339 313.983 465.638 312.494 468.277C311.003 470.918 310.218 473.903 310.217 476.938C310.216 479.915 310.98 482.948 312.572 485.703L315.594 483.958L318.616 482.213C317.649 480.537 317.198 478.733 317.196 476.938C317.196 475.111 317.673 473.301 318.571 471.71C319.472 470.12 320.782 468.75 322.488 467.765L329.072 463.963C330.748 462.996 332.552 462.544 334.348 462.543C336.175 462.543 337.985 463.019 339.575 463.918C341.166 464.818 342.535 466.129 343.521 467.835C344.488 469.511 344.94 471.315 344.94 473.11C344.941 474.937 344.465 476.748 343.566 478.338C342.666 479.929 341.356 481.297 339.65 482.283L333.066 486.085C331.389 487.052 329.585 487.503 327.79 487.504C325.963 487.505 324.152 487.029 322.562 486.13C320.971 485.23 319.602 483.92 318.616 482.213L315.594 483.958Z" fill="#B635A1"/>
<path d="M274.873 446.886L273.128 443.863C270.322 445.482 268.113 447.78 266.624 450.421C265.133 453.062 264.348 456.046 264.348 459.081C264.346 462.059 265.11 465.092 266.702 467.847L270.503 474.431C272.123 477.238 274.421 479.446 277.061 480.935C279.701 482.426 282.686 483.211 285.721 483.211C288.698 483.213 291.732 482.448 294.487 480.856C297.293 479.238 299.501 476.939 300.991 474.299C302.482 471.659 303.267 468.674 303.268 465.64C303.269 462.662 302.504 459.628 300.913 456.874L297.112 450.289C295.493 447.482 293.193 445.275 290.554 443.785C287.913 442.294 284.929 441.509 281.894 441.509C278.916 441.507 275.882 442.271 273.128 443.863L274.873 446.886L276.618 449.908C278.294 448.941 280.098 448.489 281.894 448.488C283.721 448.488 285.531 448.964 287.121 449.863C288.713 450.763 290.081 452.073 291.067 453.779L294.868 460.364C295.835 462.04 296.286 463.844 296.288 465.64C296.289 467.467 295.813 469.277 294.914 470.867C294.013 472.458 292.704 473.826 290.998 474.812C289.32 475.779 287.516 476.231 285.721 476.232C283.894 476.233 282.084 475.756 280.494 474.858C278.903 473.957 277.534 472.647 276.548 470.941L272.746 464.357C271.78 462.68 271.328 460.876 271.327 459.081C271.326 457.254 271.803 455.443 272.702 453.854C273.602 452.262 274.912 450.894 276.618 449.908L274.873 446.886Z" fill="#B635A1"/>
<path d="M309.471 506.812L307.727 503.789C304.92 505.408 302.712 507.707 301.222 510.346C299.731 512.987 298.946 515.972 298.945 519.006C298.944 521.984 299.709 525.018 301.3 527.772L305.102 534.357C306.721 537.164 309.02 539.371 311.66 540.861C314.301 542.352 317.285 543.137 320.319 543.137C323.297 543.139 326.331 542.374 329.085 540.783C331.892 539.164 334.1 536.865 335.589 534.226C337.08 531.585 337.865 528.6 337.866 525.565C337.867 522.588 337.103 519.554 335.511 516.799L331.71 510.215C330.091 507.408 327.792 505.2 325.152 503.711C322.511 502.221 319.527 501.435 316.492 501.435C313.515 501.433 310.481 502.198 307.727 503.79L309.471 506.812L311.216 509.833C312.893 508.867 314.697 508.416 316.492 508.414C318.319 508.413 320.129 508.89 321.72 509.789C323.311 510.689 324.68 511.999 325.666 513.705L329.467 520.289C330.433 521.966 330.885 523.77 330.887 525.565C330.887 527.392 330.41 529.203 329.512 530.792C328.612 532.384 327.302 533.752 325.595 534.738C323.919 535.705 322.115 536.157 320.319 536.157C318.492 536.158 316.682 535.682 315.092 534.783C313.5 533.883 312.133 532.573 311.146 530.867L307.345 524.283C306.378 522.606 305.927 520.802 305.925 519.006C305.925 517.179 306.401 515.369 307.299 513.779C308.2 512.188 309.509 510.82 311.216 509.834L309.471 506.812Z" fill="#B635A1"/>
<path d="M541.419 553.439L539.88 550.772L323.213 675.865C320.128 677.645 316.782 678.484 313.468 678.485C310.094 678.486 306.757 677.608 303.821 675.948C300.883 674.288 298.346 671.856 296.531 668.715L72.1196 280.024C70.3392 276.938 69.4997 273.592 69.4989 270.278C69.498 266.903 70.3756 263.567 72.035 260.63C73.6961 257.692 76.1273 255.156 79.2693 253.341L295.935 128.249C299.02 126.468 302.366 125.629 305.681 125.628C309.055 125.627 312.391 126.505 315.328 128.164C318.266 129.825 320.803 132.256 322.619 135.398L547.029 524.09C548.809 527.175 549.648 530.52 549.65 533.835C549.65 537.209 548.773 540.546 547.113 543.482C545.452 546.42 543.021 548.957 539.88 550.772L541.419 553.439L542.958 556.105C547.071 553.732 550.294 550.374 552.475 546.511C554.656 542.646 555.806 538.275 555.807 533.835C555.808 529.477 554.693 525.048 552.361 521.011L327.951 132.32C325.577 128.207 322.22 124.983 318.356 122.803C314.492 120.621 310.121 119.471 305.681 119.471C301.323 119.469 296.893 120.585 292.856 122.916L76.1908 248.008C72.0782 250.382 68.8549 253.739 66.6742 257.602C64.4918 261.466 63.3418 265.838 63.3418 270.278C63.3401 274.636 64.4554 279.066 66.7868 283.102L291.199 671.793C293.571 675.906 296.929 679.129 300.792 681.31C304.657 683.492 309.028 684.642 313.468 684.642C317.826 684.644 322.256 683.529 326.292 681.197L542.958 556.105L541.419 553.439Z" fill="#77D2DD"/>
<path d="M490.095 620.576C513.764 636.569 542.32 645.912 573.029 645.91C613.976 645.912 651.079 629.303 677.91 602.467C704.746 575.636 721.354 538.534 721.353 497.586C721.354 456.638 704.746 419.535 677.91 392.705C651.079 365.869 613.976 349.259 573.029 349.262C544.129 349.26 517.138 357.544 494.331 371.849C492.699 372.873 492.206 375.028 493.229 376.66C494.253 378.293 496.407 378.786 498.04 377.763C519.78 364.129 545.466 356.242 573.029 356.241C612.07 356.242 647.385 372.057 672.974 397.64C698.558 423.23 714.371 458.543 714.373 497.586C714.371 536.628 698.558 571.942 672.974 597.532C647.385 623.116 612.07 638.929 573.029 638.931C543.742 638.929 516.566 630.033 494.002 614.792C492.405 613.713 490.236 614.134 489.157 615.731C488.078 617.327 488.498 619.497 490.095 620.576Z" fill="white"/>
<path d="M532.112 385.074C545.453 379.964 559.922 377.161 575.048 377.16C608.255 377.162 638.341 390.66 660.16 412.474C681.974 434.292 695.472 464.379 695.472 497.587C695.472 530.793 681.974 560.88 660.16 582.699C638.341 604.512 608.255 618.01 575.048 618.011C560.242 618.011 546.067 615.325 532.961 610.418C531.156 609.742 529.145 610.658 528.469 612.463C527.793 614.268 528.708 616.278 530.513 616.954C544.383 622.148 559.397 624.992 575.048 624.991C610.168 624.992 642.038 610.696 665.095 587.634C688.157 564.577 702.454 532.706 702.452 497.587C702.454 462.466 688.158 430.595 665.095 407.538C642.038 384.476 610.168 370.18 575.048 370.18C559.058 370.18 543.735 373.147 529.616 378.556C527.816 379.246 526.915 381.264 527.605 383.064C528.295 384.863 530.312 385.764 532.112 385.074Z" fill="white"/>
<path d="M19.1422 195.511L42.634 208.264C44.3273 209.183 46.4462 208.556 47.3652 206.862C48.2851 205.168 47.6572 203.05 45.9639 202.13L22.4721 189.378C20.7779 188.458 18.6598 189.086 17.74 190.78C16.8202 192.473 17.4481 194.592 19.1422 195.511Z" fill="#EBEC06"/>
<path d="M1.82579 186.111L6.65008 188.731C8.3442 189.65 10.4623 189.022 11.3821 187.328C12.302 185.634 11.6741 183.516 9.97994 182.596L5.15565 179.977C3.46153 179.058 1.34344 179.686 0.423604 181.379C-0.496234 183.074 0.131665 185.192 1.82579 186.111Z" fill="#EBEC06"/>
<path d="M60.4473 139.673L79.0658 159.479C80.3859 160.884 82.5945 160.952 83.9984 159.632C85.4031 158.312 85.4716 156.104 84.1515 154.699L65.5322 134.892C64.2121 133.488 62.0035 133.42 60.5996 134.74C59.1949 136.06 59.1272 138.269 60.4473 139.673Z" fill="#EBEC06"/>
<path d="M12.4961 88.6615L48.7244 127.2C50.0445 128.605 52.2531 128.672 53.657 127.352C55.0617 126.032 55.1294 123.824 53.8093 122.42L17.5811 83.8813C16.261 82.4774 14.0523 82.4088 12.6485 83.7289C11.2437 85.049 11.176 87.2576 12.4961 88.6615Z" fill="#EBEC06"/>
<path d="M103.668 46.5133L137.91 119.878C138.725 121.624 140.802 122.379 142.548 121.564C144.295 120.749 145.05 118.673 144.235 116.926L109.993 43.5617C109.178 41.8151 107.101 41.0595 105.355 41.8753C103.608 42.6902 102.853 44.7667 103.668 46.5133Z" fill="#EBEC06"/>
<path d="M84.2774 4.96661L94.3169 26.4757C95.1319 28.2223 97.2085 28.9772 98.955 28.1623C100.702 27.3474 101.456 25.2707 100.642 23.5241L90.602 2.01419C89.7871 0.26844 87.7105 -0.487225 85.9639 0.328529C84.2173 1.14344 83.4625 3.22002 84.2774 4.96661Z" fill="#EBEC06"/>
<path d="M200.162 54.565L202.881 96.9885C203.005 98.9119 204.664 100.371 206.587 100.248C208.51 100.124 209.97 98.4651 209.846 96.5416L207.127 54.1182C207.004 52.1948 205.345 50.7359 203.421 50.8586C201.498 50.9822 200.039 52.6416 200.162 54.565Z" fill="#EBEC06"/>
<path d="M197.052 6.04555L198.636 30.7501C198.759 32.6735 200.418 34.1323 202.342 34.0096C204.265 33.8861 205.724 32.2267 205.602 30.3032L204.017 5.59873C203.894 3.67528 202.235 2.21644 200.312 2.33914C198.388 2.46269 196.929 4.1221 197.052 6.04555Z" fill="#EBEC06"/>
<path d="M272.528 57.0266L268.2 88.1225C267.934 90.0308 269.266 91.7943 271.175 92.06C273.084 92.3257 274.847 90.9929 275.113 89.0847L279.441 57.9888C279.707 56.0797 278.374 54.3162 276.466 54.0505C274.557 53.7848 272.794 55.1176 272.528 57.0266Z" fill="#EBEC06"/>
<path d="M275.526 35.4887L274.889 40.0659C274.624 41.9749 275.955 43.7376 277.865 44.0034C279.773 44.2691 281.536 42.9371 281.802 41.028L282.439 36.4509C282.705 34.5418 281.372 32.7791 279.464 32.5134C277.555 32.2477 275.791 33.5796 275.526 35.4887Z" fill="#EBEC06"/>
<path d="M490.267 239.811H486.778C486.776 244.582 484.853 248.869 481.728 252C478.598 255.124 474.31 257.047 469.54 257.049C464.768 257.047 460.481 255.124 457.35 252C454.225 248.869 452.304 244.582 452.302 239.811C452.304 235.039 454.226 230.753 457.35 227.622C460.481 224.497 464.768 222.575 469.54 222.573C474.31 222.575 478.598 224.497 481.728 227.622C484.853 230.753 486.776 235.039 486.778 239.811H490.267H493.757C493.759 233.135 491.041 227.058 486.664 222.686C482.293 218.31 476.216 215.592 469.54 215.593C462.863 215.592 456.787 218.31 452.415 222.686C448.039 227.058 445.321 233.135 445.322 239.811C445.321 246.487 448.039 252.564 452.415 256.935C456.787 261.312 462.863 264.03 469.54 264.028C476.216 264.03 482.293 261.312 486.663 256.935C491.041 252.564 493.759 246.487 493.757 239.811H490.267Z" fill="#3F56AF"/>
<path d="M542.167 294.019H538.677C538.676 296.189 537.808 298.121 536.388 299.546C534.963 300.966 533.031 301.834 530.862 301.836C528.692 301.834 526.76 300.966 525.335 299.546C523.915 298.121 523.048 296.189 523.045 294.019C523.048 291.849 523.915 289.917 525.335 288.492C526.76 287.073 528.692 286.204 530.862 286.203C533.031 286.204 534.963 287.073 536.388 288.492C537.808 289.917 538.676 291.849 538.677 294.019H542.167H545.657C545.659 289.945 543.996 286.223 541.323 283.556C538.657 280.885 534.936 279.221 530.862 279.223C526.787 279.221 523.066 280.885 520.4 283.556C517.728 286.223 516.065 289.945 516.066 294.019C516.065 298.094 517.728 301.814 520.399 304.481C523.065 307.153 526.787 308.817 530.862 308.815C534.936 308.817 538.657 307.153 541.323 304.481C543.996 301.814 545.659 298.094 545.657 294.019H542.167Z" fill="#EF343F"/>
<path d="M121.476 646.684L128.372 638.449C129.609 636.972 129.415 634.771 127.937 633.533C126.459 632.295 124.258 632.49 123.021 633.968L116.125 642.204C114.888 643.681 115.082 645.882 116.56 647.119C118.037 648.357 120.238 648.162 121.476 646.684Z" fill="#EBEC06"/>
<path d="M117.65 659.472L125.885 666.367C127.363 667.605 129.564 667.411 130.801 665.932C132.039 664.455 131.844 662.254 130.366 661.017L122.131 654.121C120.654 652.883 118.453 653.078 117.214 654.556C115.977 656.033 116.172 658.234 117.65 659.472Z" fill="#EBEC06"/>
<path d="M103.317 668.365L110.214 660.13C111.452 658.652 111.256 656.451 109.779 655.214C108.301 653.976 106.1 654.171 104.863 655.648L97.9665 663.884C96.7294 665.361 96.924 667.562 98.4015 668.799C99.879 670.037 102.08 669.843 103.317 668.365Z" fill="#EBEC06"/>
<path d="M108.686 642.861L100.451 635.965C98.9731 634.727 96.7721 634.922 95.5349 636.4C94.2977 637.878 94.4923 640.079 95.9698 641.316L104.205 648.212C105.683 649.45 107.884 649.255 109.121 647.777C110.359 646.299 110.163 644.098 108.686 642.861Z" fill="#EBEC06"/>
<path d="M573.806 222.614L580.702 214.378C581.94 212.9 581.745 210.699 580.267 209.462C578.789 208.225 576.588 208.419 575.351 209.897L568.455 218.132C567.217 219.611 567.412 221.811 568.89 223.049C570.368 224.286 572.569 224.091 573.806 222.614Z" fill="#EC0683"/>
<path d="M569.985 235.4L578.222 242.297C579.699 243.535 581.9 243.339 583.137 241.862C584.375 240.384 584.18 238.183 582.702 236.946L574.466 230.05C572.989 228.812 570.788 229.007 569.551 230.484C568.313 231.962 568.508 234.163 569.985 235.4Z" fill="#EC0683"/>
<path d="M555.652 244.294L562.549 236.059C563.786 234.581 563.591 232.38 562.114 231.143C560.636 229.906 558.435 230.1 557.197 231.578L550.301 239.813C549.063 241.291 549.258 243.492 550.735 244.729C552.214 245.967 554.415 245.771 555.652 244.294Z" fill="#EC0683"/>
<path d="M561.019 218.79L552.783 211.894C551.306 210.657 549.105 210.851 547.867 212.329C546.63 213.806 546.824 216.007 548.302 217.245L556.537 224.142C558.016 225.379 560.217 225.184 561.454 223.707C562.691 222.229 562.496 220.028 561.019 218.79Z" fill="#EC0683"/>
<path d="M75.5725 579.43H72.0827C72.0811 584.417 70.0713 588.901 66.8049 592.172C63.5334 595.438 59.0501 597.448 54.0634 597.451C49.0766 597.448 44.5934 595.438 41.3219 592.172C38.0555 588.901 36.0457 584.417 36.0441 579.43C36.0457 574.443 38.0555 569.96 41.3219 566.688C44.5934 563.422 49.0766 561.413 54.0634 561.41C59.0501 561.413 63.5334 563.422 66.8049 566.688C70.0713 569.96 72.0811 574.443 72.0827 579.43H75.5725H79.0623C79.064 572.538 76.2588 566.266 71.74 561.753C67.2271 557.235 60.9558 554.43 54.0634 554.432C47.171 554.43 40.8996 557.235 36.3868 561.753C31.868 566.266 29.0628 572.538 29.0645 579.43C29.0628 586.322 31.868 592.594 36.3868 597.107C40.8996 601.626 47.171 604.431 54.0634 604.429C60.9558 604.431 67.228 601.626 71.7409 597.107C76.2588 592.594 79.064 586.322 79.0623 579.43H75.5725Z" fill="#77D2DD"/>
<path d="M70.495 511.078H67.0052C67.0035 513.742 65.9347 516.122 64.1907 517.872C62.4416 519.616 60.0611 520.684 57.3973 520.686C54.7334 520.684 52.3538 519.616 50.6038 517.872C48.8598 516.122 47.7918 513.742 47.7902 511.078C47.7918 508.414 48.8598 506.034 50.6038 504.285C52.3538 502.541 54.7334 501.473 57.3973 501.47C60.0611 501.473 62.4416 502.541 64.1907 504.285C65.9347 506.035 67.0035 508.414 67.0052 511.078H70.495H73.9848C73.9865 506.509 72.1223 502.34 69.1258 499.35C66.1353 496.353 61.9668 494.49 57.3973 494.491C52.8277 494.49 48.6592 496.353 45.6687 499.35C42.6722 502.34 40.8089 506.509 40.8105 511.078C40.8089 515.648 42.6722 519.816 45.6687 522.807C48.6592 525.803 52.8277 527.667 57.3973 527.666C61.9668 527.667 66.1353 525.803 69.1258 522.807C72.1223 519.816 73.9865 515.648 73.9848 511.078H70.495Z" fill="#B635A1"/>
<path d="M785.746 706.214C786.203 702.07 787.776 698.109 790.273 694.787C792.769 691.464 796.179 688.782 800.343 687.153C803.118 686.068 805.962 685.557 808.763 685.557C814.094 685.556 819.273 687.417 823.377 690.741C824.875 691.954 827.066 691.724 828.285 690.226C829.495 688.729 829.267 686.531 827.769 685.318C822.429 680.992 815.719 678.579 808.763 678.578C805.115 678.577 801.401 679.247 797.804 680.652C792.405 682.76 787.937 686.271 784.696 690.593C781.447 694.917 779.399 700.052 778.807 705.452C778.595 707.367 779.974 709.092 781.895 709.302C783.808 709.513 785.534 708.13 785.746 706.214Z" fill="#5FC336"/>
<path d="M788.968 731.449C794.426 736.203 801.467 738.871 808.778 738.872C812.434 738.872 816.149 738.203 819.745 736.798C824.966 734.759 829.316 731.406 832.532 727.277C835.747 723.146 837.846 718.239 838.607 713.052C838.887 711.144 837.558 709.373 835.654 709.095C833.75 708.816 831.973 710.137 831.702 712.045C831.118 716.029 829.502 719.813 827.023 722.986C824.552 726.16 821.235 728.721 817.207 730.297C814.423 731.382 811.579 731.893 808.778 731.893C803.176 731.895 797.744 729.837 793.546 726.185C792.091 724.919 789.891 725.072 788.621 726.526C787.36 727.98 787.513 730.184 788.968 731.449Z" fill="#5FC336"/>
<path d="M778.207 724.416L841.876 699.535C843.67 698.834 844.558 696.81 843.856 695.015C843.154 693.22 841.131 692.333 839.337 693.034L775.668 717.914C773.874 718.616 772.985 720.64 773.688 722.435C774.39 724.23 776.413 725.117 778.207 724.416Z" fill="#5FC336"/>
<path d="M648.807 120.79L646.339 118.322C642.87 121.789 638.355 123.509 633.809 123.513C629.262 123.509 624.748 121.789 621.279 118.322C617.812 114.853 616.092 110.339 616.089 105.792C616.092 101.246 617.812 96.7309 621.279 93.2623C624.748 89.7953 629.262 88.0758 633.809 88.0716C638.355 88.0758 642.87 89.7953 646.339 93.2614C649.807 96.7309 651.526 101.246 651.529 105.792C651.526 110.338 649.806 114.853 646.339 118.322L648.807 120.79L651.275 123.257C656.091 118.443 658.513 112.102 658.509 105.792C658.513 99.482 656.091 93.1404 651.274 88.3263C646.461 83.5105 640.119 81.0877 633.809 81.0919C627.499 81.0877 621.158 83.5105 616.344 88.3263C611.527 93.1404 609.105 99.482 609.109 105.792C609.105 112.102 611.527 118.443 616.344 123.257C621.157 128.074 627.499 130.497 633.809 130.492C640.119 130.497 646.461 128.074 651.275 123.257L648.807 120.79Z" fill="#B635A1"/>
<path d="M651.273 88.3261L578.969 16.0219C577.606 14.6595 575.397 14.6595 574.034 16.0219C572.671 17.3852 572.671 19.5947 574.034 20.9579L646.337 93.2612C647.7 94.6245 649.91 94.6245 651.273 93.2612C652.635 91.8988 652.635 89.6893 651.273 88.3261Z" fill="#B635A1"/>
<path d="M621.278 88.3261L590.834 57.8826C589.471 56.5193 587.262 56.5193 585.899 57.8826C584.536 59.245 584.536 61.4545 585.899 62.8178L616.343 93.2612C617.706 94.6245 619.916 94.6245 621.278 93.2612C622.641 91.8988 622.641 89.6893 621.278 88.3261Z" fill="#B635A1"/>
<path d="M621.278 118.322L561.958 59.0015C560.594 57.6391 558.385 57.6392 557.022 59.0024C555.659 60.3649 555.659 62.5743 557.022 63.9375L616.343 123.257C617.706 124.621 619.916 124.621 621.278 123.257C622.642 121.895 622.642 119.685 621.278 118.322Z" fill="#B635A1"/>
<path d="M904.208 635.169H900.713C900.713 637.723 899.689 640.003 898.022 641.681C896.338 643.353 894.062 644.376 891.507 644.378C888.951 644.376 886.675 643.353 884.991 641.681C883.324 640.003 882.3 637.723 882.3 635.169C882.3 632.615 883.324 630.335 884.991 628.657C886.675 626.985 888.951 625.962 891.507 625.96C894.062 625.962 896.338 626.985 898.022 628.657C899.689 630.335 900.713 632.615 900.713 635.169H904.208H907.695C907.695 630.71 905.875 626.64 902.956 623.722C900.036 620.797 895.966 618.979 891.507 618.98C887.047 618.979 882.977 620.797 880.057 623.722C877.138 626.64 875.318 630.71 875.318 635.169C875.318 639.628 877.138 643.698 880.057 646.616C882.977 649.541 887.047 651.359 891.507 651.358C895.966 651.359 900.036 649.541 902.956 646.616C905.875 643.698 907.695 639.628 907.695 635.169H904.208Z" fill="#EBEC06"/>
<path d="M772.747 602.748V599.259H751.981V581.98H769.261V602.748H772.747V599.259V602.748H776.234V578.49C776.234 577.571 775.862 576.672 775.218 576.022C774.567 575.372 773.67 575 772.747 575H748.486C747.573 575 746.667 575.372 746.024 576.022C745.372 576.672 745 577.571 745 578.49V602.748C745 603.667 745.372 604.566 746.024 605.216C746.667 605.866 747.573 606.238 748.486 606.238H772.747C773.67 606.238 774.567 605.866 775.218 605.216C775.862 604.566 776.234 603.667 776.234 602.748H772.747Z" fill="#B635A1"/>
<path d="M504.227 89.0975V85.6076H486.786V71.657H500.737V89.0975H504.227V85.6076V89.0975H507.717V68.1671C507.717 67.2481 507.344 66.3494 506.694 65.6996C506.044 65.0497 505.146 64.6773 504.227 64.6773H483.296C482.377 64.6773 481.479 65.0497 480.829 65.6996C480.179 66.3494 479.807 67.2481 479.807 68.1671V89.0975C479.807 90.0165 480.179 90.9151 480.829 91.565C481.479 92.2149 482.377 92.5873 483.296 92.5873H504.227C505.146 92.5873 506.044 92.2149 506.694 91.565C507.344 90.9151 507.717 90.0165 507.717 89.0975H504.227Z" fill="#5FC336"/>
<path d="M1043.15 677.585L1050.04 669.35C1051.28 667.872 1051.08 665.671 1049.6 664.434C1048.13 663.197 1045.92 663.392 1044.69 664.869L1037.79 673.104C1036.55 674.581 1036.75 676.782 1038.23 678.02C1039.7 679.257 1041.9 679.063 1043.15 677.585Z" fill="#B635A1"/>
<path d="M1039.32 690.373L1047.56 697.269C1049.04 698.506 1051.24 698.312 1052.47 696.834C1053.71 695.356 1053.51 693.155 1052.04 691.918L1043.8 685.022C1042.33 683.785 1040.13 683.979 1038.88 685.457C1037.65 686.934 1037.84 689.135 1039.32 690.373Z" fill="#B635A1"/>
<path d="M1024.99 699.266L1031.88 691.03C1033.12 689.552 1032.93 687.351 1031.45 686.114C1029.97 684.877 1027.77 685.072 1026.54 686.549L1019.64 694.785C1018.4 696.263 1018.6 698.464 1020.07 699.701C1021.55 700.938 1023.75 700.744 1024.99 699.266Z" fill="#B635A1"/>
<path d="M1030.36 673.762L1022.12 666.866C1020.65 665.629 1018.45 665.823 1017.2 667.301C1015.97 668.778 1016.16 670.979 1017.64 672.217L1025.87 679.113C1027.36 680.35 1029.56 680.156 1030.79 678.678C1032.03 677.201 1031.83 675 1030.36 673.762Z" fill="#B635A1"/>
<path d="M833.019 88.0996L830.426 89.8135C828.844 87.4697 826.778 85.624 824.229 84.2764C821.71 82.8994 818.971 82.2109 816.012 82.2109C811.207 82.2109 807.105 83.9102 803.707 87.3086C800.309 90.707 798.609 94.8086 798.609 99.6133C798.609 104.418 800.309 108.52 803.707 111.918C807.105 115.316 811.207 117.016 816.012 117.016C818.971 117.016 821.71 116.327 824.229 114.95C826.778 113.573 828.844 111.713 830.426 109.369L832.975 111.215C831.1 113.969 828.668 116.151 825.68 117.763C822.691 119.374 819.469 120.18 816.012 120.18C813.229 120.18 810.562 119.638 808.014 118.554C805.494 117.47 803.312 116.005 801.466 114.159C799.62 112.313 798.155 110.131 797.071 107.611C795.987 105.062 795.445 102.396 795.445 99.6133C795.445 96.8301 795.987 94.1787 797.071 91.6592C798.155 89.1104 799.62 86.9131 801.466 85.0674C803.312 83.2217 805.494 81.7568 808.014 80.6729C810.562 79.5889 813.229 79.0469 816.012 79.0469C819.498 79.0469 822.735 79.8672 825.724 81.5078C828.712 83.1191 831.144 85.3164 833.019 88.0996ZM838.248 84.4961L835.611 86.21C833.443 83.0459 830.631 80.541 827.174 78.6953C823.746 76.8203 820.025 75.8828 816.012 75.8828C811.705 75.8828 807.735 76.9521 804.103 79.0908C800.47 81.2002 797.584 84.0713 795.445 87.7041C793.336 91.3369 792.281 95.3066 792.281 99.6133C792.281 103.92 793.336 107.89 795.445 111.522C797.584 115.155 800.47 118.041 804.103 120.18C807.735 122.289 811.705 123.344 816.012 123.344C820.025 123.344 823.761 122.406 827.218 120.531C830.675 118.656 833.487 116.122 835.655 112.929L838.248 114.73C835.787 118.363 832.594 121.234 828.668 123.344C824.771 125.453 820.553 126.508 816.012 126.508C811.148 126.508 806.651 125.307 802.521 122.904C798.39 120.502 795.123 117.235 792.721 113.104C790.318 108.974 789.117 104.477 789.117 99.6133C789.117 94.75 790.318 90.2529 792.721 86.1221C795.123 81.9912 798.39 78.7246 802.521 76.3223C806.651 73.9199 811.148 72.7188 816.012 72.7188C820.553 72.7188 824.771 73.7734 828.668 75.8828C832.594 77.9922 835.787 80.8633 838.248 84.4961ZM843.521 80.9805L840.885 82.6943C838.131 78.6514 834.557 75.458 830.162 73.1143C825.797 70.7412 821.08 69.5547 816.012 69.5547C811.939 69.5547 808.043 70.3457 804.322 71.9277C800.602 73.5098 797.394 75.6484 794.698 78.3438C792.032 81.0098 789.908 84.2031 788.326 87.9238C786.744 91.6445 785.953 95.541 785.953 99.6133C785.953 103.686 786.744 107.582 788.326 111.303C789.908 115.023 792.032 118.231 794.698 120.927C797.394 123.593 800.602 125.717 804.322 127.299C808.043 128.881 811.939 129.672 816.012 129.672C821.109 129.672 825.841 128.485 830.206 126.112C834.571 123.739 838.131 120.531 840.885 116.488L843.434 118.378C840.387 122.831 836.446 126.361 831.612 128.969C826.808 131.547 821.607 132.836 816.012 132.836C810.006 132.836 804.454 131.356 799.356 128.397C794.259 125.409 790.216 121.366 787.228 116.269C784.269 111.171 782.789 105.619 782.789 99.6133C782.789 93.6074 784.269 88.0557 787.228 82.958C790.216 77.8604 794.259 73.832 799.356 70.873C804.454 67.8848 810.006 66.3906 816.012 66.3906C821.637 66.3906 826.866 67.709 831.7 70.3457C836.534 72.9531 840.475 76.498 843.521 80.9805ZM848.707 77.377L846.07 79.0908C842.73 74.1982 838.409 70.3311 833.106 67.4893C827.833 64.6475 822.135 63.2266 816.012 63.2266C811.09 63.2266 806.373 64.1934 801.861 66.127C797.379 68.0312 793.512 70.6094 790.26 73.8613C787.008 77.1133 784.415 80.9951 782.481 85.5068C780.577 89.9893 779.625 94.6914 779.625 99.6133C779.625 104.535 780.577 109.252 782.481 113.764C784.415 118.246 787.008 122.113 790.26 125.365C793.512 128.617 797.379 131.21 801.861 133.144C806.373 135.048 811.09 136 816.012 136C822.135 136 827.848 134.564 833.15 131.693C838.453 128.822 842.774 124.94 846.114 120.048L848.663 121.981C845.03 127.255 840.343 131.444 834.601 134.55C828.858 137.626 822.662 139.164 816.012 139.164C810.65 139.164 805.523 138.109 800.631 136C795.768 133.92 791.563 131.122 788.019 127.606C784.503 124.062 781.69 119.857 779.581 114.994C777.501 110.102 776.461 104.975 776.461 99.6133C776.461 94.252 777.501 89.1396 779.581 84.2764C781.69 79.3838 784.503 75.1797 788.019 71.6641C791.563 68.1191 795.768 65.3066 800.631 63.2266C805.523 61.1172 810.65 60.0625 816.012 60.0625C822.691 60.0625 828.902 61.6152 834.645 64.7207C840.387 67.8262 845.074 72.0449 848.707 77.377ZM878.985 95.4385C876.524 97.8994 875.294 100.873 875.294 104.359C875.294 107.846 876.524 110.834 878.985 113.324C881.476 115.785 884.464 117.016 887.95 117.016C891.437 117.016 894.41 115.785 896.871 113.324C899.361 110.834 900.606 107.846 900.606 104.359C900.606 100.873 899.361 97.8994 896.871 95.4385C894.41 92.9482 891.437 91.7031 887.95 91.7031C884.464 91.7031 881.476 92.9482 878.985 95.4385ZM876.744 115.565C873.668 112.46 872.13 108.725 872.13 104.359C872.13 99.9941 873.668 96.2734 876.744 93.1973C879.85 90.0918 883.585 88.5391 887.95 88.5391C892.315 88.5391 896.036 90.0918 899.112 93.1973C902.218 96.2734 903.771 99.9941 903.771 104.359C903.771 108.725 902.218 112.46 899.112 115.565C896.036 118.642 892.315 120.18 887.95 120.18C883.585 120.18 879.85 118.642 876.744 115.565ZM874.503 90.9561C870.812 94.6768 868.966 99.1445 868.966 104.359C868.966 109.574 870.812 114.042 874.503 117.763C878.224 121.483 882.706 123.344 887.95 123.344C893.194 123.344 897.662 121.483 901.354 117.763C905.074 114.042 906.935 109.574 906.935 104.359C906.935 99.1445 905.074 94.6768 901.354 90.9561C897.662 87.2354 893.194 85.375 887.95 85.375C882.706 85.375 878.224 87.2354 874.503 90.9561ZM868.746 115.478C866.783 112.079 865.802 108.373 865.802 104.359C865.802 100.346 866.783 96.6396 868.746 93.2412C870.738 89.8428 873.434 87.1621 876.832 85.1992C880.23 83.207 883.937 82.2109 887.95 82.2109C891.964 82.2109 895.67 83.207 899.068 85.1992C902.467 87.1621 905.147 89.8428 907.11 93.2412C909.103 96.6396 910.099 100.346 910.099 104.359C910.099 108.373 909.103 112.079 907.11 115.478C905.147 118.876 902.467 121.571 899.068 123.563C895.67 125.526 891.964 126.508 887.95 126.508C883.937 126.508 880.23 125.526 876.832 123.563C873.434 121.571 870.738 118.876 868.746 115.478ZM864.615 94.5596C863.297 97.665 862.638 100.932 862.638 104.359C862.638 107.787 863.297 111.068 864.615 114.203C865.963 117.309 867.765 120.004 870.021 122.289C872.306 124.545 875.001 126.347 878.106 127.694C881.241 129.013 884.522 129.672 887.95 129.672C891.378 129.672 894.645 129.013 897.75 127.694C900.885 126.347 903.58 124.545 905.836 122.289C908.121 120.004 909.923 117.309 911.241 114.203C912.589 111.068 913.263 107.787 913.263 104.359C913.263 100.932 912.589 97.665 911.241 94.5596C909.923 91.4248 908.121 88.7295 905.836 86.4736C903.58 84.1885 900.885 82.3867 897.75 81.0684C894.645 79.7207 891.378 79.0469 887.95 79.0469C884.522 79.0469 881.241 79.7207 878.106 81.0684C875.001 82.3867 872.306 84.1885 870.021 86.4736C867.765 88.7295 865.963 91.4248 864.615 94.5596ZM861.715 115.434C860.221 111.918 859.474 108.227 859.474 104.359C859.474 100.492 860.221 96.8008 861.715 93.2852C863.238 89.7695 865.26 86.752 867.779 84.2324C870.328 81.6836 873.36 79.6621 876.876 78.168C880.392 76.6445 884.083 75.8828 887.95 75.8828C891.817 75.8828 895.509 76.6445 899.024 78.168C902.54 79.6621 905.558 81.6836 908.077 84.2324C910.626 86.752 912.647 89.7695 914.142 93.2852C915.665 96.8008 916.427 100.492 916.427 104.359C916.427 108.227 915.665 111.918 914.142 115.434C912.647 118.949 910.626 121.981 908.077 124.53C905.558 127.05 902.54 129.071 899.024 130.595C895.509 132.089 891.817 132.836 887.95 132.836C884.083 132.836 880.392 132.089 876.876 130.595C873.36 129.071 870.328 127.05 867.779 124.53C865.26 121.981 863.238 118.949 861.715 115.434ZM858.814 92.0986C857.145 95.9951 856.31 100.082 856.31 104.359C856.31 108.637 857.145 112.738 858.814 116.664C860.484 120.561 862.726 123.93 865.538 126.771C868.38 129.584 871.749 131.825 875.646 133.495C879.571 135.165 883.673 136 887.95 136C892.228 136 896.314 135.165 900.211 133.495C904.137 131.825 907.506 129.584 910.318 126.771C913.16 123.93 915.416 120.561 917.086 116.664C918.756 112.738 919.591 108.637 919.591 104.359C919.591 100.082 918.756 95.9951 917.086 92.0986C915.416 88.1729 913.16 84.8037 910.318 81.9912C907.506 79.1494 904.137 76.8936 900.211 75.2236C896.314 73.5537 892.228 72.7188 887.95 72.7188C883.673 72.7188 879.571 73.5537 875.646 75.2236C871.749 76.8936 868.38 79.1494 865.538 81.9912C862.726 84.8037 860.484 88.1729 858.814 92.0986ZM855.914 117.895C854.068 113.588 853.146 109.076 853.146 104.359C853.146 99.6426 854.068 95.1455 855.914 90.8682C857.76 86.5615 860.235 82.8555 863.341 79.75C866.446 76.6445 870.138 74.1689 874.415 72.3232C878.722 70.4775 883.233 69.5547 887.95 69.5547C892.667 69.5547 897.164 70.4775 901.441 72.3232C905.748 74.1689 909.454 76.6445 912.56 79.75C915.665 82.8555 918.141 86.5615 919.986 90.8682C921.832 95.1455 922.755 99.6426 922.755 104.359C922.755 109.076 921.832 113.588 919.986 117.895C918.141 122.172 915.665 125.863 912.56 128.969C909.454 132.074 905.748 134.55 901.441 136.396C897.164 138.241 892.667 139.164 887.95 139.164C883.233 139.164 878.722 138.241 874.415 136.396C870.138 134.55 866.446 132.074 863.341 128.969C860.235 125.863 857.76 122.172 855.914 117.895ZM970.304 96.4492V136H967.14V96.4492C967.14 95.5996 966.993 94.8818 966.7 94.2959C966.437 93.6807 966.085 93.2119 965.646 92.8896C965.206 92.5674 964.62 92.3184 963.888 92.1426C963.185 91.9375 962.496 91.8203 961.822 91.791C961.148 91.7324 960.313 91.7031 959.317 91.7031C958.321 91.7031 957.486 91.7324 956.812 91.791C956.139 91.8203 955.436 91.9375 954.703 92.1426C954 92.3184 953.429 92.5674 952.989 92.8896C952.55 93.2119 952.184 93.6807 951.891 94.2959C951.627 94.8818 951.495 95.5996 951.495 96.4492V136H948.331V96.4492C948.331 91.1758 951.993 88.5391 959.317 88.5391C966.642 88.5391 970.304 91.1758 970.304 96.4492ZM976.632 96.4492V136H973.468V96.4492C973.468 92.7285 972.149 89.96 969.513 88.1436C966.905 86.2979 963.507 85.375 959.317 85.375C955.128 85.375 951.715 86.2979 949.078 88.1436C946.471 89.96 945.167 92.7285 945.167 96.4492V136H942.003V96.4492C942.003 93.373 942.794 90.7363 944.376 88.5391C945.958 86.3418 948.023 84.7451 950.572 83.749C953.15 82.7236 956.065 82.2109 959.317 82.2109C962.569 82.2109 965.47 82.7236 968.019 83.749C970.597 84.7451 972.677 86.3418 974.259 88.5391C975.841 90.7363 976.632 93.373 976.632 96.4492ZM982.96 96.4492V136H979.796V96.4492C979.796 93.6953 979.254 91.2051 978.17 88.9785C977.115 86.752 975.65 84.9209 973.775 83.4854C971.9 82.0498 969.732 80.9512 967.271 80.1895C964.811 79.4277 962.159 79.0469 959.317 79.0469C956.476 79.0469 953.824 79.4277 951.363 80.1895C948.902 80.9512 946.734 82.0498 944.859 83.4854C942.984 84.9209 941.505 86.752 940.421 88.9785C939.366 91.2051 938.839 93.6953 938.839 96.4492V136H935.675V96.4492C935.675 93.2559 936.29 90.3555 937.521 87.748C938.78 85.1406 940.479 82.9873 942.618 81.2881C944.757 79.5596 947.262 78.2266 950.133 77.2891C953.004 76.3516 956.065 75.8828 959.317 75.8828C962.569 75.8828 965.631 76.3516 968.502 77.2891C971.373 78.2266 973.878 79.5596 976.017 81.2881C978.155 82.9873 979.84 85.1406 981.07 87.748C982.33 90.3555 982.96 93.2559 982.96 96.4492ZM989.288 136H986.124V96.4492C986.124 93.2559 985.406 90.1943 983.971 87.2646C982.564 84.335 980.66 81.8154 978.258 79.7061C975.855 77.5674 972.999 75.8682 969.688 74.6084C966.378 73.3486 962.921 72.7188 959.317 72.7188C954.366 72.7188 949.869 73.6562 945.826 75.5312C941.812 77.377 938.59 80.1309 936.158 83.793C933.727 87.4258 932.511 91.6445 932.511 96.4492V136H929.347V96.4492C929.347 92.4062 930.138 88.6855 931.72 85.2871C933.302 81.8887 935.44 79.0469 938.136 76.7617C940.86 74.4766 944.039 72.7041 947.672 71.4443C951.334 70.1846 955.216 69.5547 959.317 69.5547C966.583 69.5547 972.882 71.3857 978.214 75.0479C983.546 71.3857 989.845 69.5547 997.11 69.5547C1001.21 69.5547 1005.08 70.1846 1008.71 71.4443C1012.37 72.7041 1015.55 74.4766 1018.25 76.7617C1020.97 79.0469 1023.13 81.8887 1024.71 85.2871C1026.29 88.6855 1027.08 92.4062 1027.08 96.4492V136H1023.92V96.4492C1023.92 91.6738 1022.7 87.4697 1020.27 83.8369C1017.84 80.1748 1014.6 77.4062 1010.56 75.5312C1006.54 73.6562 1002.06 72.7188 997.11 72.7188C990.899 72.7188 985.479 74.1836 980.851 77.1133C981.524 77.6992 982.271 78.4609 983.092 79.3984C987.105 77.0547 991.778 75.8828 997.11 75.8828C1000.36 75.8828 1003.42 76.3516 1006.29 77.2891C1009.17 78.2266 1011.67 79.5596 1013.81 81.2881C1015.95 82.9873 1017.63 85.1406 1018.86 87.748C1020.12 90.3555 1020.75 93.2559 1020.75 96.4492V136H1017.59V96.4492C1017.59 93.6953 1017.05 91.2051 1015.96 88.9785C1014.91 86.752 1013.44 84.9209 1011.57 83.4854C1009.69 82.0498 1007.53 80.9512 1005.06 80.1895C1002.6 79.4277 999.952 79.0469 997.11 79.0469C992.452 79.0469 988.424 79.999 985.025 81.9033C985.553 82.7236 986.08 83.6318 986.607 84.6279C989.479 83.0166 992.979 82.2109 997.11 82.2109C1000.36 82.2109 1003.26 82.7236 1005.81 83.749C1008.39 84.7451 1010.47 86.3418 1012.05 88.5391C1013.63 90.7363 1014.42 93.373 1014.42 96.4492V136H1011.26V96.4492C1011.26 92.7285 1009.94 89.96 1007.31 88.1436C1004.7 86.2979 1001.3 85.375 997.11 85.375C993.302 85.375 990.211 86.0781 987.838 87.4844C988.219 88.5977 988.512 89.6523 988.717 90.6484C990.562 89.2422 993.36 88.5391 997.11 88.5391C1004.43 88.5391 1008.1 91.1758 1008.1 96.4492V136H1004.93V96.4492C1004.93 95.5996 1004.79 94.8818 1004.49 94.2959C1004.23 93.6807 1003.88 93.2119 1003.44 92.8896C1003 92.5674 1002.41 92.3184 1001.68 92.1426C1000.98 91.9375 1000.29 91.8203 999.615 91.791C998.941 91.7324 998.106 91.7031 997.11 91.7031C996.114 91.7031 995.279 91.7324 994.605 91.791C993.932 91.8203 993.229 91.9375 992.496 92.1426C991.793 92.3184 991.222 92.5674 990.782 92.8896C990.343 93.2119 989.977 93.6807 989.684 94.2959C989.42 94.8818 989.288 95.5996 989.288 96.4492V136ZM1050.81 136H1047.65V72.7188H1050.81V136ZM1044.48 136H1041.32V72.7188H1044.48V136ZM1038.16 136H1034.99V72.7188H1038.16V136ZM1057.14 120.18H1087.42V123.344H1057.14V126.508H1087.42V129.672H1057.14V132.836H1087.42V136H1053.98V72.7188H1087.42V75.8828H1057.14V79.0469H1087.42V82.2109H1057.14V85.375H1087.42V88.5391H1057.14V96.4053H1085.66V99.5693H1057.14V102.733H1085.66V105.897H1057.14V109.062H1085.66V112.226H1057.14V120.18Z" fill="#77D2DD"/>
<path d="M822.999 194.799C822.999 191.049 821.842 188.148 819.527 186.098C817.213 184.047 814.151 183.021 810.343 183.021C807.12 183.021 804.352 184.135 802.037 186.361C799.723 188.588 798.565 191.254 798.565 194.359C798.565 196.117 798.8 197.699 799.269 199.105C799.737 200.482 800.367 201.64 801.158 202.577C801.979 203.485 802.945 204.247 804.059 204.862C805.172 205.448 806.329 205.873 807.53 206.137C808.761 206.4 810.064 206.532 811.441 206.532C814.781 206.532 817.828 205.712 820.582 204.071V207.235C817.74 208.729 814.679 209.477 811.397 209.477C809.288 209.477 807.296 209.198 805.421 208.642C803.575 208.056 801.891 207.191 800.367 206.049C798.844 204.877 797.628 203.295 796.72 201.303C795.841 199.281 795.401 196.967 795.401 194.359C795.401 190.316 796.822 186.889 799.664 184.076C802.506 181.264 806.065 179.857 810.343 179.857C815.06 179.857 818.868 181.19 821.769 183.856C824.698 186.493 826.163 190.141 826.163 194.799V226H822.999V194.799ZM832.491 194.799V226H829.327V194.799C829.327 189.262 827.555 184.867 824.01 181.615C820.465 178.334 815.909 176.693 810.343 176.693C805.187 176.693 800.88 178.407 797.423 181.835C793.966 185.263 792.237 189.438 792.237 194.359C792.237 197.348 792.75 200.028 793.775 202.401C794.83 204.774 796.251 206.679 798.038 208.114C799.825 209.55 801.817 210.648 804.015 211.41C806.241 212.143 808.585 212.509 811.046 212.509C814.386 212.509 817.564 211.732 820.582 210.18V213.52C817.418 214.838 814.225 215.497 811.002 215.497C808.102 215.497 805.348 215.058 802.74 214.179C800.133 213.271 797.804 211.967 795.753 210.268C793.702 208.539 792.076 206.312 790.875 203.588C789.674 200.834 789.073 197.758 789.073 194.359C789.073 188.588 791.109 183.681 795.182 179.638C799.283 175.565 804.337 173.529 810.343 173.529C814.562 173.529 818.341 174.394 821.681 176.122C825.021 177.821 827.657 180.297 829.591 183.549C831.524 186.801 832.491 190.551 832.491 194.799ZM838.819 194.799V226H835.655V194.799C835.655 189.965 834.542 185.688 832.315 181.967C830.118 178.217 827.101 175.346 823.263 173.354C819.425 171.361 815.118 170.365 810.343 170.365C805.802 170.365 801.656 171.449 797.906 173.617C794.156 175.756 791.212 178.656 789.073 182.318C786.964 185.98 785.909 189.994 785.909 194.359C785.909 198.109 786.598 201.537 787.975 204.643C789.352 207.719 791.197 210.253 793.512 212.245C795.855 214.237 798.507 215.79 801.466 216.903C804.454 217.987 807.574 218.529 810.826 218.529C814.137 218.529 817.389 217.841 820.582 216.464V219.672C817.242 220.932 813.961 221.562 810.738 221.562C805.67 221.562 801.012 220.419 796.764 218.134C792.516 215.849 789.117 212.611 786.568 208.422C784.02 204.232 782.745 199.545 782.745 194.359C782.745 190.668 783.448 187.152 784.854 183.812C786.29 180.473 788.224 177.587 790.655 175.155C793.087 172.724 796.017 170.79 799.444 169.354C802.872 167.919 806.505 167.201 810.343 167.201C815.704 167.201 820.538 168.344 824.845 170.629C829.181 172.914 832.594 176.166 835.084 180.385C837.574 184.604 838.819 189.408 838.819 194.799ZM845.147 194.799V226H841.983V194.799C841.983 188.822 840.592 183.49 837.809 178.803C835.025 174.086 831.231 170.453 826.427 167.904C821.622 165.326 816.261 164.037 810.343 164.037C804.659 164.037 799.459 165.399 794.742 168.124C790.025 170.849 786.319 174.54 783.624 179.198C780.929 183.827 779.581 188.881 779.581 194.359C779.581 197.963 780.152 201.391 781.295 204.643C782.467 207.865 784.049 210.692 786.041 213.124C788.062 215.526 790.377 217.606 792.984 219.364C795.621 221.122 798.448 222.455 801.466 223.363C804.513 224.271 807.604 224.726 810.738 224.726C814.195 224.726 817.477 224.066 820.582 222.748V226C817.33 227.143 813.99 227.714 810.562 227.714C807.018 227.714 803.561 227.216 800.191 226.22C796.852 225.224 793.746 223.759 790.875 221.825C788.033 219.862 785.528 217.562 783.36 214.926C781.192 212.26 779.493 209.154 778.263 205.609C777.032 202.064 776.417 198.314 776.417 194.359C776.417 189.818 777.267 185.497 778.966 181.396C780.694 177.265 783.038 173.705 785.997 170.717C788.985 167.699 792.589 165.312 796.808 163.554C801.056 161.767 805.567 160.873 810.343 160.873C815.206 160.873 819.776 161.693 824.054 163.334C828.331 164.975 832.022 167.26 835.128 170.189C838.233 173.09 840.68 176.664 842.467 180.912C844.254 185.16 845.147 189.789 845.147 194.799ZM902.892 200.468L899.728 194.711V162.719H902.892V200.468ZM909.22 211.41L906.056 206.049V162.719H909.22V211.41ZM865.626 188.251L868.79 194.008V226H865.626V188.251ZM859.298 176.869L862.462 182.67V226H859.298V176.869ZM860.396 162.719H864.088L900.738 226H897.047L860.396 162.719ZM867.867 162.719H871.603L908.209 226H904.43L867.867 162.719ZM875.294 162.719H878.985L912.384 220.507V162.719H915.548V226H911.812L875.294 162.719ZM856.134 168.168V226H852.97V162.719H856.749L893.268 226H889.62L856.134 168.168ZM942.794 207.016V181.703C942.794 181.703 948.639 181.703 960.328 181.703C963.58 181.703 966.363 182.934 968.678 185.395C971.021 187.855 972.193 190.814 972.193 194.271C972.193 197.846 971.036 200.863 968.722 203.324C966.407 205.785 963.609 207.016 960.328 207.016H942.794ZM945.958 203.852H960.328C962.701 203.852 964.723 202.929 966.393 201.083C968.092 199.237 968.941 196.967 968.941 194.271C968.941 191.693 968.092 189.481 966.393 187.636C964.723 185.79 962.701 184.867 960.328 184.867H945.958V203.852ZM939.63 210.18H960.328C964.488 210.18 968.048 208.642 971.007 205.565C973.966 202.46 975.445 198.695 975.445 194.271C975.445 189.936 973.951 186.229 970.963 183.153C968.004 180.077 964.459 178.539 960.328 178.539H939.63V210.18ZM936.466 213.344V175.375H960.328C965.338 175.375 969.645 177.235 973.248 180.956C976.881 184.647 978.697 189.086 978.697 194.271C978.697 199.574 976.896 204.086 973.292 207.807C969.688 211.498 965.367 213.344 960.328 213.344H936.466ZM933.302 216.508H960.328C964.195 216.508 967.784 215.526 971.095 213.563C974.405 211.601 977.042 208.905 979.005 205.478C980.968 202.05 981.949 198.314 981.949 194.271C981.949 190.316 980.968 186.64 979.005 183.241C977.042 179.843 974.391 177.162 971.051 175.199C967.74 173.207 964.166 172.211 960.328 172.211H933.302V216.508ZM930.138 219.672V169.047H960.328C964.752 169.047 968.868 170.175 972.677 172.431C976.515 174.687 979.562 177.763 981.817 181.659C984.073 185.526 985.201 189.73 985.201 194.271C985.201 198.871 984.073 203.134 981.817 207.06C979.562 210.956 976.515 214.032 972.677 216.288C968.868 218.544 964.752 219.672 960.328 219.672H930.138ZM926.974 222.836H960.328C965.338 222.836 969.996 221.576 974.303 219.057C978.609 216.508 982.037 213.036 984.586 208.642C987.164 204.247 988.453 199.457 988.453 194.271C988.453 189.174 987.164 184.442 984.586 180.077C982.037 175.683 978.595 172.226 974.259 169.706C969.952 167.157 965.309 165.883 960.328 165.883H926.974V222.836ZM960.328 226H923.81V162.719H960.328C965.895 162.719 971.08 164.14 975.885 166.981C980.719 169.794 984.557 173.632 987.398 178.495C990.27 183.329 991.705 188.588 991.705 194.271C991.705 198.578 990.855 202.694 989.156 206.62C987.486 210.546 985.23 213.93 982.389 216.771C979.576 219.584 976.236 221.825 972.369 223.495C968.502 225.165 964.488 226 960.328 226ZM1033.1 196.205H1046.5C1049.14 196.205 1051.38 195.414 1053.23 193.832C1055.07 192.25 1056 190.023 1056 187.152C1056 184.926 1055.03 182.934 1053.1 181.176C1051.16 179.418 1048.97 178.539 1046.5 178.539H1024.36V226H1021.19V175.375H1046.5C1049.87 175.375 1052.82 176.562 1055.34 178.935C1057.89 181.308 1059.16 184.047 1059.16 187.152C1059.16 190.873 1057.93 193.847 1055.47 196.073C1053.01 198.271 1050.02 199.369 1046.5 199.369H1033.1V196.205ZM1033.1 202.533H1046.5C1050.84 202.533 1054.56 201.098 1057.67 198.227C1060.77 195.355 1062.33 191.664 1062.33 187.152C1062.33 183.197 1060.74 179.726 1057.58 176.737C1054.42 173.72 1050.72 172.211 1046.5 172.211H1018.03V226H1014.86V169.047H1046.5C1051.6 169.047 1056.04 170.863 1059.82 174.496C1063.6 178.1 1065.49 182.318 1065.49 187.152C1065.49 192.426 1063.61 196.835 1059.86 200.38C1056.14 203.925 1051.69 205.697 1046.5 205.697H1033.1V202.533ZM1033.1 208.861H1046.5C1050.46 208.861 1054.12 207.924 1057.49 206.049C1060.89 204.174 1063.6 201.566 1065.62 198.227C1067.64 194.887 1068.65 191.195 1068.65 187.152C1068.65 183.432 1067.64 179.931 1065.62 176.649C1063.63 173.368 1060.92 170.761 1057.49 168.827C1054.09 166.864 1050.43 165.883 1046.5 165.883H1011.7V226H1008.54V162.719H1046.5C1049.84 162.719 1053.07 163.378 1056.17 164.696C1059.31 166.015 1062.02 167.787 1064.3 170.014C1066.59 172.211 1068.4 174.818 1069.75 177.836C1071.13 180.824 1071.82 183.93 1071.82 187.152C1071.82 190.932 1071.14 194.403 1069.8 197.567C1068.45 200.731 1066.62 203.368 1064.3 205.478C1061.99 207.558 1059.29 209.169 1056.22 210.312C1053.17 211.454 1049.93 212.025 1046.5 212.025H1033.1V208.861ZM1030.68 226H1027.52V181.703H1046.5C1048.23 181.703 1049.71 182.245 1050.94 183.329C1052.2 184.384 1052.83 185.658 1052.83 187.152C1052.83 191.078 1050.72 193.041 1046.5 193.041H1033.1V189.877H1046.5C1048.61 189.877 1049.67 188.969 1049.67 187.152C1049.67 186.508 1049.36 185.966 1048.75 185.526C1048.13 185.087 1047.38 184.867 1046.5 184.867H1030.68V226ZM1078.94 162.719H1082.1V226H1078.94V162.719ZM1097.92 162.719H1101.08V210.18H1124.42V213.344H1101.08V216.508H1124.42V219.672H1101.08V222.836H1124.42V226H1097.92V162.719ZM1091.59 162.719H1094.76V226H1091.59V162.719ZM1085.26 162.719H1088.43V226H1085.26V162.719ZM1176.32 194.799C1176.32 191.049 1175.16 188.148 1172.85 186.098C1170.53 184.047 1167.47 183.021 1163.66 183.021C1160.44 183.021 1157.67 184.135 1155.36 186.361C1153.04 188.588 1151.89 191.254 1151.89 194.359C1151.89 196.117 1152.12 197.699 1152.59 199.105C1153.06 200.482 1153.69 201.64 1154.48 202.577C1155.3 203.485 1156.27 204.247 1157.38 204.862C1158.49 205.448 1159.65 205.873 1160.85 206.137C1162.08 206.4 1163.38 206.532 1164.76 206.532C1168.1 206.532 1171.15 205.712 1173.9 204.071V207.235C1171.06 208.729 1168 209.477 1164.72 209.477C1162.61 209.477 1160.62 209.198 1158.74 208.642C1156.9 208.056 1155.21 207.191 1153.69 206.049C1152.16 204.877 1150.95 203.295 1150.04 201.303C1149.16 199.281 1148.72 196.967 1148.72 194.359C1148.72 190.316 1150.14 186.889 1152.98 184.076C1155.83 181.264 1159.39 179.857 1163.66 179.857C1168.38 179.857 1172.19 181.19 1175.09 183.856C1178.02 186.493 1179.48 190.141 1179.48 194.799V226H1176.32V194.799ZM1185.81 194.799V226H1182.65V194.799C1182.65 189.262 1180.88 184.867 1177.33 181.615C1173.79 178.334 1169.23 176.693 1163.66 176.693C1158.51 176.693 1154.2 178.407 1150.74 181.835C1147.29 185.263 1145.56 189.438 1145.56 194.359C1145.56 197.348 1146.07 200.028 1147.1 202.401C1148.15 204.774 1149.57 206.679 1151.36 208.114C1153.15 209.55 1155.14 210.648 1157.33 211.41C1159.56 212.143 1161.91 212.509 1164.37 212.509C1167.71 212.509 1170.88 211.732 1173.9 210.18V213.52C1170.74 214.838 1167.54 215.497 1164.32 215.497C1161.42 215.497 1158.67 215.058 1156.06 214.179C1153.45 213.271 1151.12 211.967 1149.07 210.268C1147.02 208.539 1145.4 206.312 1144.2 203.588C1142.99 200.834 1142.39 197.758 1142.39 194.359C1142.39 188.588 1144.43 183.681 1148.5 179.638C1152.6 175.565 1157.66 173.529 1163.66 173.529C1167.88 173.529 1171.66 174.394 1175 176.122C1178.34 177.821 1180.98 180.297 1182.91 183.549C1184.84 186.801 1185.81 190.551 1185.81 194.799ZM1192.14 194.799V226H1188.98V194.799C1188.98 189.965 1187.86 185.688 1185.64 181.967C1183.44 178.217 1180.42 175.346 1176.58 173.354C1172.75 171.361 1168.44 170.365 1163.66 170.365C1159.12 170.365 1154.98 171.449 1151.23 173.617C1147.48 175.756 1144.53 178.656 1142.39 182.318C1140.28 185.98 1139.23 189.994 1139.23 194.359C1139.23 198.109 1139.92 201.537 1141.29 204.643C1142.67 207.719 1144.52 210.253 1146.83 212.245C1149.18 214.237 1151.83 215.79 1154.79 216.903C1157.77 217.987 1160.89 218.529 1164.15 218.529C1167.46 218.529 1170.71 217.841 1173.9 216.464V219.672C1170.56 220.932 1167.28 221.562 1164.06 221.562C1158.99 221.562 1154.33 220.419 1150.08 218.134C1145.84 215.849 1142.44 212.611 1139.89 208.422C1137.34 204.232 1136.07 199.545 1136.07 194.359C1136.07 190.668 1136.77 187.152 1138.17 183.812C1139.61 180.473 1141.54 177.587 1143.98 175.155C1146.41 172.724 1149.34 170.79 1152.76 169.354C1156.19 167.919 1159.83 167.201 1163.66 167.201C1169.02 167.201 1173.86 168.344 1178.17 170.629C1182.5 172.914 1185.91 176.166 1188.4 180.385C1190.89 184.604 1192.14 189.408 1192.14 194.799ZM1198.47 194.799V226H1195.3V194.799C1195.3 188.822 1193.91 183.49 1191.13 178.803C1188.35 174.086 1184.55 170.453 1179.75 167.904C1174.94 165.326 1169.58 164.037 1163.66 164.037C1157.98 164.037 1152.78 165.399 1148.06 168.124C1143.35 170.849 1139.64 174.54 1136.94 179.198C1134.25 183.827 1132.9 188.881 1132.9 194.359C1132.9 197.963 1133.47 201.391 1134.62 204.643C1135.79 207.865 1137.37 210.692 1139.36 213.124C1141.38 215.526 1143.7 217.606 1146.3 219.364C1148.94 221.122 1151.77 222.455 1154.79 223.363C1157.83 224.271 1160.92 224.726 1164.06 224.726C1167.52 224.726 1170.8 224.066 1173.9 222.748V226C1170.65 227.143 1167.31 227.714 1163.88 227.714C1160.34 227.714 1156.88 227.216 1153.51 226.22C1150.17 225.224 1147.07 223.759 1144.2 221.825C1141.35 219.862 1138.85 217.562 1136.68 214.926C1134.51 212.26 1132.81 209.154 1131.58 205.609C1130.35 202.064 1129.74 198.314 1129.74 194.359C1129.74 189.818 1130.59 185.497 1132.29 181.396C1134.01 177.265 1136.36 173.705 1139.32 170.717C1142.31 167.699 1145.91 165.312 1150.13 163.554C1154.38 161.767 1158.89 160.873 1163.66 160.873C1168.53 160.873 1173.1 161.693 1177.37 163.334C1181.65 164.975 1185.34 167.26 1188.45 170.189C1191.55 173.09 1194 176.664 1195.79 180.912C1197.57 185.16 1198.47 189.789 1198.47 194.799ZM1263.73 162.719H1266.89L1246.98 204.643V226H1243.82V204.643L1263.73 162.719ZM1257.4 162.719H1260.56L1240.66 204.643V226H1237.49V204.643L1257.4 162.719ZM1251.07 162.719H1254.23L1234.33 204.643V226H1231.16V204.643L1251.07 162.719ZM1244.74 162.719H1247.91L1228 204.643V226H1224.83V204.643L1203.61 162.719H1206.77L1226.37 201.435L1244.74 162.719ZM1209.98 162.719H1213.15L1228.83 192.558L1227.25 196.029L1209.98 162.719ZM1216.31 162.719H1219.52L1232 185.614L1230.37 189.086L1216.31 162.719ZM1222.73 162.719H1225.89L1235.16 178.715L1233.58 182.187L1222.73 162.719ZM1272.34 216.508V213.344H1294.49V216.508H1272.34ZM1272.34 222.836V219.672H1294.49V222.836H1272.34ZM1272.34 229.164V226H1294.49V229.164H1272.34ZM1291.32 153.227H1294.49V207.016H1291.32V153.227ZM1285 153.227H1288.16V207.016H1285V153.227ZM1278.67 153.227H1281.83V207.016H1278.67V153.227ZM1272.34 153.227H1275.5V207.016H1272.34V153.227Z" fill="#EBEC06"/>
</svg>
